<svg width="32" height="32" viewBox="0 0 32 32" fill="none" xmlns="http://www.w3.org/2000/svg">
<rect width="32" height="32" fill="white"/>
<path d="M29.3333 0H2.66667C1.19391 0 0 1.19391 0 2.66667V29.3333C0 30.8061 1.19391 32 2.66667 32H29.3333C30.8061 32 32 30.8061 32 29.3333V2.66667C32 1.19391 30.8061 0 29.3333 0Z" fill="#C4C4C4"/>
<mask id="mask0_199_107" style="mask-type:alpha" maskUnits="userSpaceOnUse" x="0" y="0" width="32" height="32">
<path d="M29.3333 0H2.66667C1.19391 0 0 1.19391 0 2.66667V29.3333C0 30.8061 1.19391 32 2.66667 32H29.3333C30.8061 32 32 30.8061 32 29.3333V2.66667C32 1.19391 30.8061 0 29.3333 0Z" fill="#C4C4C4"/>
</mask>
<g mask="url(#mask0_199_107)">
<path d="M6.33333 24.1668L0 32.0002H32L25.1667 23.3335L6.33333 24.1668Z" fill="url(#paint0_linear_199_107)"/>
<path d="M7.33333 23L9.16667 0H0V32L7.33333 23Z" fill="url(#paint1_linear_199_107)"/>
<path d="M32 32V0H22.5L25.1667 23.3333L32 32Z" fill="url(#paint2_linear_199_107)"/>
<path d="M22.6667 0H9.33337C7.12423 0 5.33337 1.79086 5.33337 4V22C5.33337 24.2091 7.12423 26 9.33337 26H22.6667C24.8758 26 26.6667 24.2091 26.6667 22V4C26.6667 1.79086 24.8758 0 22.6667 0Z" fill="#CFCFCF"/>
</g>
<defs>
<linearGradient id="paint0_linear_199_107" x1="28" y1="28.1668" x2="2.33333" y2="28.6668" gradientUnits="userSpaceOnUse">
<stop stop-color="#969696"/>
<stop offset="1" stop-color="#B3B3B3"/>
</linearGradient>
<linearGradient id="paint1_linear_199_107" x1="9.33333" y1="23.8333" x2="1.33333" y2="-3" gradientUnits="userSpaceOnUse">
<stop stop-color="#B8B8B8"/>
<stop offset="1" stop-color="#D9D9D9"/>
</linearGradient>
<linearGradient id="paint2_linear_199_107" x1="28.3333" y1="27.3333" x2="32" y2="0.833333" gradientUnits="userSpaceOnUse">
<stop stop-color="#8A8A8A"/>
<stop offset="1" stop-color="#A1A1A1"/>
</linearGradient>
</defs>
</svg>
